# xmcd
#
# Track frame offsets:
#	150
#	16206
#	32316
#	55079
#
# Disc length: 980 seconds
#
# Revision: 0
# Processed by: cddbd v1.5.2PL0 Copyright (c) Steve Scherf et al.
# Submitted via: audiograbber 1.83.01
#
DISCID=2003d204
DTITLE=Nadine Norell - Maxi CD - Teil' mit mir die Nacht (LC 00613)
DYEAR=2000
DGENRE=Deutsch
TTITLE0=Teil mit mir die Nacht (Radio Version)
TTITLE1=Teil mit mir die Nacht (Single Version)
TTITLE2=Teil mit mir die Nacht (Maxi Version)
TTITLE3=Im Zug der Liebe
EXTD=
EXTT0=
EXTT1=
EXTT2=
EXTT3=
PLAYORDER=
